<svg width="6" height="12" viewBox="0 0 6 12" fill="none" xmlns="http://www.w3.org/2000/svg">
<g opacity="0.700126">
<path d="M0.126651 6.32929L5.2652 11.8643C5.43356 12.0455 5.70614 12.0452 5.87421 11.8634C6.04216 11.6815 6.04173 11.3869 5.87335 11.2055L1.04066 5.99997L5.87352 0.794428C6.04188 0.613022 6.04231 0.318624 5.87439 0.13675C5.79013 0.0455787 5.67975 -6.91414e-06 5.56937 -6.91414e-06C5.45927 -6.91414e-06 5.34933 0.0452735 5.26522 0.135813L0.126651 5.67067C0.0455636 5.75781 6.13928e-05 5.87641 6.13928e-05 5.99997C6.13928e-05 6.12353 0.0456938 6.24199 0.126651 6.32929Z" fill="black"/>
</g>
</svg>
